<?xml version="1.0" standalone="no"?>
<!DOCTYPE svg PUBLIC "-//W3C//DTD SVG 20010904//EN"
 "http://www.w3.org/TR/2001/REC-SVG-20010904/DTD/svg10.dtd">
<svg version="1.0" xmlns="http://www.w3.org/2000/svg"
 width="1416.000000pt" height="672.000000pt" viewBox="0 0 1416.000000 672.000000"
 preserveAspectRatio="xMidYMid meet">
<metadata>
Created by potrace 1.16, written by Peter Selinger 2001-2019
</metadata>
<g transform="translate(0.000000,672.000000) scale(0.100000,-0.100000)"
fill="#000000" stroke="none">
<path d="M2650 5310 c-21 -23 -33 -51 -45 -108 -9 -42 -22 -104 -30 -137 -7
-33 -19 -87 -26 -120 -7 -33 -15 -63 -19 -68 -3 -4 -24 0 -46 9 -48 20 -148
14 -195 -13 -17 -10 -41 -23 -51 -29 -35 -21 -118 -107 -164 -170 -58 -82 -95
-180 -101 -274 -5 -84 8 -128 52 -172 45 -45 78 -53 154 -38 81 16 158 65 233
150 29 33 55 60 59 60 4 0 10 -24 13 -53 8 -62 42 -127 76 -144 60 -30 175 5
224 69 30 40 33 60 11 78 -12 10 -24 10 -54 1 -94 -28 -111 -8 -111 125 0 141
47 389 121 633 44 146 45 188 6 216 -35 24 -75 19 -107 -15z m-185 -560 c37
-41 11 -131 -71 -245 -88 -124 -196 -198 -243 -168 -24 15 -21 117 4 173 47
108 137 219 198 245 47 21 91 18 112 -5z"/>
<path d="M12741 5324 c-31 -22 -54 -79 -85 -214 -87 -382 -123 -856 -69 -928
28 -38 80 -41 121 -7 l30 25 -1 233 c-1 290 4 327 109 727 20 77 18 143 -4
163 -24 22 -71 22 -101 1z"/>
<path d="M6163 5287 c-45 -17 -62 -44 -63 -99 0 -40 4 -50 31 -72 47 -40 92
-36 140 13 30 30 39 46 39 73 0 45 -23 75 -68 88 -43 12 -38 12 -79 -3z"/>
<path d="M9085 5194 c-170 -22 -299 -54 -358 -86 -36 -20 -42 -29 -45 -59 -2
-25 3 -40 18 -54 30 -27 28 -93 -15 -435 -36 -289 -37 -315 -13 -366 12 -26
58 -37 93 -24 38 15 55 59 56 152 0 46 4 105 7 133 8 55 -5 47 162 90 232 59
423 178 485 300 33 66 39 161 12 211 -24 46 -78 89 -140 113 -55 20 -198 34
-262 25z m218 -167 c93 -71 23 -198 -153 -278 -119 -54 -274 -97 -286 -78 -5
9 23 310 32 332 4 10 67 32 149 51 11 2 65 4 121 3 93 -2 103 -4 137 -30z"/>
<path d="M1749 5186 c-9 -9 -369 -48 -439 -48 -134 0 -174 -26 -145 -94 8 -20
15 -57 15 -81 0 -90 -76 -586 -99 -646 -24 -62 -6 -129 40 -153 35 -18 102
-18 226 0 199 29 259 36 303 36 51 0 157 25 177 42 20 17 15 62 -9 86 -36 32
-66 35 -194 13 -159 -26 -341 -44 -355 -35 -13 8 -7 88 13 188 15 71 27 78
168 95 331 40 355 47 355 112 0 69 -90 84 -274 45 -36 -8 -99 -17 -140 -20
l-73 -5 5 47 c9 80 39 206 51 218 20 18 129 34 307 44 198 11 224 20 224 81 0
44 -49 79 -110 79 -23 0 -44 -2 -46 -4z"/>
<path d="M5564 5173 c-37 -7 -54 -38 -86 -155 -17 -62 -35 -118 -40 -124 -4
-6 -46 -14 -93 -16 -47 -3 -92 -11 -100 -18 -21 -17 -19 -73 3 -92 21 -19 79
-37 112 -35 22 2 25 -2 24 -28 -1 -16 -11 -75 -23 -130 -40 -191 -38 -278 10
-339 34 -44 76 -60 155 -60 58 1 80 6 125 30 103 55 178 151 152 193 -17 27
-42 24 -92 -12 -27 -20 -62 -42 -79 -51 -39 -20 -106 -21 -122 -1 -25 30 -8
186 41 371 l11 41 101 18 c156 26 205 42 223 70 19 28 12 70 -12 79 -8 3 -69
1 -135 -6 -65 -6 -122 -9 -125 -5 -3 3 6 46 20 96 31 106 32 122 9 149 -20 23
-47 31 -79 25z"/>
<path d="M11354 5173 c-12 -2 -30 -14 -41 -26 -19 -21 -25 -37 -59 -162 -30
-109 -22 -101 -119 -107 -80 -5 -90 -4 -122 18 -28 18 -49 24 -93 24 -116 0
-206 -83 -347 -319 -11 -18 -23 -29 -25 -25 -3 5 4 47 14 94 39 173 43 201 31
218 -25 40 -91 40 -138 -1 -23 -19 -28 -36 -41 -132 -9 -61 -16 -196 -17 -305
-2 -177 0 -199 18 -235 17 -33 26 -41 54 -43 81 -8 97 12 127 154 9 44 24 98
35 121 10 23 19 45 19 48 0 4 21 38 46 77 51 80 136 173 175 193 23 13 30 11
70 -16 49 -32 80 -37 102 -14 12 11 22 12 44 5 15 -5 42 -9 58 -7 35 2 36 -2
11 -113 -37 -165 -46 -237 -34 -300 24 -141 157 -188 316 -110 107 53 186 154
152 195 -20 24 -41 18 -120 -35 -82 -55 -144 -67 -171 -33 -20 23 -16 118 10
243 38 180 27 165 139 184 189 32 242 56 242 106 0 38 -29 53 -88 46 -30 -4
-88 -9 -128 -13 -84 -7 -85 -6 -60 69 29 90 38 145 27 167 -12 21 -43 42 -58
40 -4 -1 -18 -4 -29 -6z"/>
<path d="M4100 4947 c-85 -24 -185 -121 -267 -262 -76 -128 -110 -282 -83
-368 20 -63 64 -113 115 -133 72 -27 202 -16 289 25 85 40 189 137 184 171 -6
43 -33 48 -91 17 -132 -73 -151 -80 -219 -85 -111 -8 -140 28 -119 145 12 63
81 212 130 280 32 45 88 80 102 66 4 -4 14 -32 22 -62 15 -59 36 -81 77 -81
61 0 89 96 52 180 -19 45 -76 110 -96 110 -6 0 -20 2 -31 5 -11 2 -40 -2 -65
-8z"/>
<path d="M4865 4935 c-175 -43 -379 -297 -414 -516 -14 -83 0 -132 49 -181 33
-34 43 -38 86 -38 27 0 66 5 87 11 52 14 141 79 200 144 27 30 53 55 58 55 5
0 9 -22 9 -50 0 -27 9 -74 20 -104 18 -46 27 -56 58 -69 46 -18 83 -12 117 19
33 31 32 58 -5 84 -61 43 -73 154 -40 355 11 66 20 134 20 151 0 33 -26 64
-53 64 -8 0 -26 14 -38 31 -12 17 -37 38 -55 45 -38 16 -32 16 -99 -1z m66
-152 c21 -25 13 -105 -16 -166 -58 -124 -185 -255 -262 -272 -29 -6 -33 -4
-39 20 -20 80 48 227 164 356 65 72 125 97 153 62z"/>
<path d="M12117 4935 c-137 -34 -304 -207 -382 -396 -36 -87 -46 -217 -20
-266 30 -55 75 -77 146 -70 85 7 161 49 240 130 37 37 72 67 78 67 7 0 11 -21
11 -55 0 -138 97 -210 193 -143 36 26 38 74 3 87 -58 23 -73 188 -36 400 23
131 17 159 -36 173 -18 5 -34 16 -37 27 -5 22 -41 47 -77 55 -14 2 -51 -2 -83
-9z m63 -151 c40 -47 -6 -188 -97 -299 -75 -92 -186 -166 -210 -141 -12 12 -3
115 13 157 20 52 87 157 140 218 64 74 126 100 154 65z"/>
<path d="M6662 4923 c-51 -7 -139 -65 -191 -127 -63 -75 -116 -184 -136 -281
-26 -127 -2 -219 75 -289 149 -134 423 -8 542 251 27 60 31 79 32 158 0 70 -5
100 -21 136 -25 56 -74 113 -116 135 -33 16 -127 25 -185 17z m113 -155 c101
-80 58 -293 -83 -403 -121 -94 -202 -64 -202 77 0 103 49 223 122 297 55 56
115 67 163 29z"/>
<path d="M9906 4923 c-82 -13 -194 -109 -256 -218 -67 -117 -97 -275 -70 -371
19 -65 89 -138 150 -154 199 -53 466 168 505 416 12 81 -24 203 -78 262 -49
54 -156 81 -251 65z m98 -143 c65 -24 88 -171 42 -272 -59 -133 -201 -230
-270 -185 -78 51 -39 280 70 405 51 60 98 75 158 52z"/>
<path d="M3045 4910 c-37 -14 -49 -41 -67 -139 -9 -53 -26 -136 -37 -185 -27
-115 -27 -236 -2 -291 10 -22 35 -54 57 -70 33 -25 47 -29 95 -28 31 0 70 8
86 16 55 29 128 94 168 150 22 31 43 56 47 57 4 0 9 -26 13 -57 18 -157 73
-219 160 -178 50 25 56 58 17 98 -27 28 -32 42 -40 114 -11 91 0 239 23 317
23 77 20 122 -10 142 -17 11 -35 14 -58 10 -41 -8 -67 -50 -102 -167 -35 -116
-73 -179 -166 -276 -58 -59 -115 -91 -138 -76 -44 28 -30 137 50 387 33 105
23 154 -38 177 -28 10 -31 10 -58 -1z"/>
<path d="M6036 4881 c-11 -12 -23 -62 -36 -142 -10 -68 -28 -180 -39 -249 -30
-181 -25 -256 20 -301 27 -27 84 -25 113 4 22 23 23 28 18 146 -5 136 3 203
49 378 16 61 29 116 29 123 0 6 -11 22 -25 35 -31 32 -103 35 -129 6z"/>
<path d="M7185 4860 c-27 -28 -28 -33 -36 -177 -5 -81 -14 -179 -20 -218 -6
-38 -13 -105 -16 -148 -5 -72 -4 -78 18 -97 17 -14 36 -19 64 -17 l40 2 55
110 c55 110 153 262 208 321 98 107 125 75 162 -196 20 -144 54 -196 137 -207
70 -9 163 55 163 112 0 28 -16 35 -68 28 -37 -5 -42 -3 -55 23 -8 16 -22 76
-32 134 -37 228 -70 298 -151 320 -105 30 -224 -54 -314 -220 -24 -44 -45 -78
-47 -76 -3 3 3 55 12 116 16 115 14 158 -11 198 -22 33 -73 30 -109 -8z"/>
<path d="M2404 2075 c-15 -23 -34 -94 -53 -195 l-6 -35 -61 0 c-77 -1 -139
-35 -193 -108 -52 -70 -67 -103 -75 -164 -11 -88 24 -143 91 -143 43 0 130 47
159 86 15 19 30 34 34 34 4 0 11 -17 15 -37 8 -44 40 -83 67 -83 28 0 96 37
108 59 19 36 13 43 -35 36 -42 -7 -44 -6 -51 20 -17 68 11 239 78 473 15 51 4
75 -35 80 -19 2 -30 -4 -43 -23z m-97 -332 c23 -59 -128 -247 -181 -227 -27
10 -20 81 14 139 40 68 50 79 89 103 37 22 66 17 78 -15z"/>
<path d="M7862 2065 c-14 -18 -24 -60 -37 -157 -9 -73 -26 -185 -37 -248 -31
-179 -32 -204 -15 -219 21 -17 58 -10 71 14 70 124 150 237 187 263 32 22 46
0 54 -86 11 -115 47 -176 102 -170 37 4 41 29 13 85 -12 24 -26 74 -31 111
-21 146 -44 180 -116 169 -43 -7 -81 -41 -135 -120 -22 -32 -42 -56 -45 -54
-2 3 2 31 11 64 55 211 67 310 42 348 -21 32 -39 32 -64 0z"/>
<path d="M879 2010 c-85 -15 -174 -72 -205 -132 -19 -36 -18 -98 2 -126 19
-28 72 -55 171 -87 87 -29 123 -49 123 -69 0 -26 -61 -66 -133 -87 -61 -19
-77 -21 -114 -11 -63 17 -83 15 -92 -10 -20 -56 34 -94 117 -82 108 15 185 41
246 83 53 37 78 73 79 117 2 58 -47 93 -193 140 -113 35 -142 69 -104 122 50
71 234 84 234 16 0 -36 73 -4 81 36 13 70 -88 113 -212 90z"/>
<path d="M9175 1993 c-15 -15 -74 -90 -132 -166 -58 -76 -110 -136 -115 -135
-9 3 -25 43 -95 235 -8 23 -24 51 -34 62 -22 23 -63 28 -76 9 -4 -7 -18 -67
-30 -133 -12 -66 -36 -172 -52 -235 -44 -163 -40 -210 15 -210 32 0 48 26 60
99 6 36 19 102 29 146 10 44 21 96 25 115 l7 35 11 -28 c7 -16 12 -33 12 -38
0 -5 4 -17 9 -27 6 -9 17 -38 26 -64 10 -25 28 -57 42 -70 l24 -23 37 20 c24
13 68 60 124 135 48 63 93 117 99 119 9 3 10 -9 5 -45 -20 -137 -25 -185 -26
-252 0 -88 10 -112 49 -112 44 0 55 21 48 92 -5 55 21 340 38 423 5 23 2 35
-12 47 -35 31 -59 31 -88 1z"/>
<path d="M1297 1993 c-8 -10 -21 -40 -28 -68 -17 -73 -26 -85 -58 -85 -15 0
-42 -5 -60 -11 -54 -19 -33 -71 30 -73 l31 -1 -7 -58 c-3 -33 -10 -70 -16 -84
-18 -48 -11 -114 17 -150 23 -30 30 -33 78 -33 64 0 112 18 147 57 61 66 40
96 -36 53 -65 -37 -101 -39 -109 -7 -6 25 8 129 26 189 10 35 14 38 67 49 107
22 129 29 135 45 11 28 -4 34 -85 34 -43 0 -79 2 -79 5 0 3 8 33 17 66 16 59
16 62 -2 75 -25 19 -49 18 -68 -3z"/>
<path d="M4580 2000 c-25 -4 -87 -11 -137 -15 -104 -8 -119 -17 -103 -61 8
-20 8 -54 0 -119 -16 -133 -39 -270 -52 -305 -14 -41 2 -77 39 -86 15 -4 58
-2 95 4 38 7 82 12 98 12 53 0 179 22 196 34 21 16 11 52 -16 61 -11 3 -78 -1
-150 -10 -72 -10 -138 -14 -146 -11 -16 6 -15 49 3 123 6 25 50 38 163 49 99
9 143 26 138 55 -6 41 -28 45 -155 26 -65 -9 -121 -13 -124 -9 -12 13 23 151
40 158 9 3 76 11 150 18 109 9 136 14 145 29 8 12 8 22 0 35 -13 19 -105 26
-184 12z"/>
<path d="M7536 1988 c-8 -13 -17 -34 -20 -48 -25 -97 -27 -100 -65 -100 -52 0
-79 -9 -84 -30 -7 -29 12 -50 53 -56 22 -4 40 -10 40 -15 0 -4 -7 -34 -15 -66
-23 -88 -22 -178 2 -211 17 -23 28 -27 79 -30 52 -2 65 1 105 27 57 38 79 75
58 97 -14 13 -20 12 -55 -12 -22 -16 -54 -27 -74 -28 -34 -1 -35 0 -38 43 -3
42 23 178 37 193 4 4 42 15 86 24 88 18 105 27 105 55 0 17 -8 19 -80 19 -44
0 -80 4 -80 8 0 5 5 34 11 65 9 44 9 60 -1 72 -18 22 -47 18 -64 -7z"/>
<path d="M13656 1988 c-8 -13 -22 -51 -31 -84 l-17 -62 -51 -5 c-87 -8 -100
-68 -17 -82 22 -4 40 -9 40 -12 0 -3 -6 -31 -14 -62 -35 -138 -27 -214 24
-241 59 -31 159 -4 218 59 53 57 12 86 -58 41 -97 -62 -121 -34 -91 107 12 53
25 101 29 105 5 5 44 16 88 25 87 17 104 26 104 54 0 17 -8 19 -81 19 l-82 0
8 38 c4 20 9 49 12 65 10 53 -52 80 -81 35z"/>
<path d="M3724 1866 c-28 -13 -67 -40 -88 -60 -30 -31 -36 -43 -36 -80 0 -52
25 -83 96 -119 27 -14 60 -34 73 -45 l25 -19 -29 -19 c-22 -14 -48 -19 -100
-19 -83 -1 -108 -12 -103 -46 5 -38 45 -51 121 -39 121 19 197 67 197 125 0
44 -27 75 -98 113 -72 39 -86 54 -78 87 9 34 77 69 121 61 23 -5 38 -2 49 9
20 20 20 25 0 53 -21 30 -83 29 -150 -2z"/>
<path d="M5445 1878 c-106 -37 -175 -139 -137 -202 9 -16 50 -47 92 -71 41
-23 76 -50 78 -58 5 -26 -38 -40 -121 -42 -42 -1 -82 -6 -88 -12 -19 -19 -6
-57 24 -71 58 -28 227 22 267 78 43 60 18 106 -85 160 -37 19 -71 43 -77 53
-22 41 62 105 122 93 16 -3 37 -3 45 0 18 7 20 55 3 72 -15 15 -82 14 -123 0z"/>
<path d="M7043 1865 c-27 -19 -59 -87 -98 -209 l-31 -100 -20 30 c-32 44 -54
121 -54 184 0 51 -3 58 -25 68 -14 7 -28 12 -30 12 -6 0 -89 -138 -131 -218
-22 -41 -43 -74 -49 -75 -19 -4 -46 125 -43 207 2 67 -1 80 -17 92 -26 19 -41
18 -65 -6 -61 -61 39 -430 116 -430 26 0 64 51 115 153 27 53 53 97 57 97 4 0
15 -27 25 -61 31 -106 77 -159 136 -159 21 0 38 32 86 165 20 55 49 123 64
150 39 71 42 82 25 100 -19 19 -34 19 -61 0z"/>
<path d="M11485 1862 c-92 -43 -166 -167 -167 -277 -1 -111 48 -161 152 -158
98 3 210 80 210 143 0 41 -19 39 -85 -11 -66 -50 -133 -63 -165 -34 -31 28
-24 40 35 60 107 37 195 130 195 207 0 71 -93 108 -175 70z"/>
<path d="M12731 1869 c-43 -13 -121 -91 -151 -154 -18 -36 -26 -71 -28 -126
-4 -73 -3 -77 28 -112 65 -74 185 -71 279 9 57 48 75 114 31 114 -10 0 -24 -8
-31 -17 -30 -36 -103 -73 -144 -73 -72 0 -92 50 -27 71 86 28 144 70 183 134
33 53 23 122 -21 148 -31 19 -67 20 -119 6z"/>
<path d="M2900 1862 c-29 -9 -40 -36 -40 -99 0 -35 -6 -78 -14 -96 -16 -39
-76 -94 -124 -114 -31 -13 -37 -13 -51 1 -24 24 -18 81 18 169 23 58 28 83 21
97 -20 38 -70 29 -94 -18 -23 -45 -46 -157 -46 -226 0 -56 3 -65 29 -91 26
-24 36 -27 71 -22 23 3 68 21 101 41 33 20 63 36 66 36 11 0 -6 -96 -27 -152
-31 -83 -54 -108 -98 -108 -36 0 -74 16 -127 54 -20 15 -31 17 -44 9 -57 -36
34 -124 143 -139 115 -16 171 30 219 181 34 106 69 434 50 461 -11 14 -35 22
-53 16z"/>
<path d="M4997 1839 c-179 -119 -251 -397 -102 -399 42 0 131 47 161 87 32 42
44 42 44 -2 0 -35 15 -73 35 -87 20 -15 62 -8 81 13 17 19 17 22 3 32 -9 7
-21 22 -27 34 -15 28 -15 138 0 221 11 60 11 66 -6 76 -11 6 -28 21 -39 34
-31 34 -91 30 -150 -9z m101 -91 c4 -42 -15 -84 -66 -147 -35 -43 -86 -81
-109 -81 -23 0 -15 75 14 130 37 71 107 142 136 138 17 -2 23 -11 25 -40z"/>
<path d="M5960 1850 c-16 -16 -20 -33 -20 -87 0 -86 -20 -126 -84 -174 -59
-44 -96 -55 -113 -31 -15 19 -17 71 -4 104 5 13 19 46 30 75 26 65 26 89 0
103 -48 26 -81 -29 -115 -193 -17 -86 -10 -132 29 -167 36 -34 111 -19 184 36
48 37 57 32 49 -27 -8 -62 -40 -149 -67 -183 -16 -20 -29 -26 -59 -26 -46 0
-99 21 -124 49 -25 27 -52 27 -60 -1 -8 -33 21 -68 85 -101 46 -24 63 -28 116
-25 49 3 68 9 89 28 69 65 115 227 133 465 9 125 4 158 -24 169 -23 8 -23 8
-45 -14z"/>
<path d="M9549 1845 c-52 -34 -125 -121 -155 -184 -15 -30 -29 -80 -31 -112
-5 -54 -4 -59 23 -84 26 -24 35 -26 77 -22 52 7 123 50 151 92 21 32 36 24 36
-19 0 -48 33 -86 75 -86 50 0 63 29 28 66 -25 27 -26 29 -19 133 3 58 9 123
12 143 5 33 3 39 -17 47 -13 5 -32 19 -41 30 -25 29 -91 27 -139 -4z m97 -81
c15 -57 -50 -170 -126 -221 -36 -23 -43 -25 -56 -11 -13 13 -13 20 2 63 21 62
53 114 100 159 44 43 71 46 80 10z"/>
<path d="M10559 1842 c-118 -75 -215 -265 -179 -351 30 -74 132 -66 223 18 24
23 47 41 49 41 3 0 8 -18 11 -41 7 -56 32 -81 75 -77 48 4 64 31 35 58 -31 29
-38 81 -25 190 16 123 15 129 -5 137 -10 4 -26 17 -36 30 -27 34 -90 31 -148
-5z m99 -94 c5 -62 -70 -178 -140 -214 -39 -20 -51 -10 -44 38 9 57 40 112 96
169 58 61 83 63 88 7z"/>
<path d="M11792 1858 c-12 -16 -20 -82 -28 -260 -7 -152 -3 -168 47 -168 26 0
33 8 68 78 43 85 110 190 134 210 20 17 24 4 32 -108 8 -110 11 -117 46 -135
23 -13 34 -13 52 -4 31 17 40 30 103 152 31 59 62 107 69 107 13 0 18 -25 31
-147 11 -103 57 -150 123 -127 33 12 39 46 12 73 -23 23 -35 64 -51 176 -14
100 -33 129 -88 133 -35 3 -45 -2 -74 -31 -18 -18 -53 -70 -77 -116 -23 -45
-45 -81 -46 -79 -2 2 -8 42 -13 91 -12 105 -29 137 -75 137 -17 -1 -41 -6 -53
-13 -31 -18 -81 -78 -115 -139 l-30 -53 8 65 c12 103 9 138 -12 155 -25 18
-49 19 -63 3z"/>
<path d="M11097 1846 c-125 -45 -249 -194 -251 -304 -1 -36 4 -48 27 -68 17
-15 40 -24 60 -24 38 0 108 30 155 67 18 14 36 22 39 19 10 -10 -17 -129 -42
-183 -41 -92 -99 -100 -220 -32 -62 35 -95 38 -95 9 0 -51 139 -140 218 -140
71 0 129 36 176 112 20 31 42 118 51 203 10 101 26 188 42 232 19 51 11 79
-30 104 -37 22 -77 24 -130 5z m66 -80 c22 -58 -104 -219 -178 -226 -52 -6
-58 11 -24 75 53 101 184 198 202 151z"/>
<path d="M1580 1811 c-11 -43 -25 -106 -42 -197 -15 -77 5 -140 52 -168 29
-16 33 -16 80 -1 36 12 62 30 94 67 l44 51 12 -44 c20 -80 26 -89 64 -89 51 0
63 21 36 65 -20 33 -22 44 -16 133 3 53 9 118 12 144 5 40 3 47 -15 53 -32 10
-56 -10 -75 -62 -10 -26 -25 -66 -34 -88 -18 -44 -117 -155 -139 -155 -7 0
-18 10 -24 23 -10 23 -6 46 43 234 14 52 0 73 -48 73 -30 0 -34 -4 -44 -39z"/>
<path d="M3426 1828 c-9 -12 -16 -36 -16 -53 0 -16 -5 -48 -10 -70 -15 -62
-29 -207 -23 -238 8 -40 44 -55 77 -34 24 16 25 20 19 87 -6 70 4 135 33 229
18 56 18 66 -2 85 -22 23 -60 20 -78 -6z"/>
<path d="M7222 1833 c-15 -29 -52 -257 -52 -322 0 -54 3 -62 25 -77 23 -15 27
-15 51 1 23 15 25 21 19 64 -6 48 10 202 24 231 19 36 22 88 6 104 -22 21 -62
20 -73 -1z"/>
<path d="M9888 1823 c-11 -12 -19 -56 -27 -138 -6 -66 -14 -141 -17 -166 -7
-52 10 -79 52 -79 20 0 29 10 48 54 27 61 113 191 144 220 25 22 50 15 56 -16
2 -13 12 -63 21 -113 18 -100 36 -124 91 -125 37 0 84 34 84 61 0 15 -7 19
-34 19 -39 0 -38 -3 -60 118 -24 130 -48 162 -121 162 -28 0 -45 -9 -81 -42
-25 -23 -54 -58 -64 -77 l-19 -36 1 76 c1 42 -2 81 -6 88 -11 17 -51 13 -68
-6z"/>
<path d="M13017 1822 c-10 -11 -17 -35 -17 -60 0 -23 -7 -92 -16 -153 -18
-129 -14 -156 21 -165 37 -9 52 0 74 50 38 87 146 234 172 236 11 0 27 -53 40
-130 17 -112 36 -139 100 -140 25 0 44 8 63 25 33 31 30 49 -10 53 -16 2 -32
7 -36 10 -4 4 -16 54 -27 112 -18 93 -24 108 -52 134 -28 25 -37 28 -78 23
-41 -4 -52 -12 -103 -67 l-58 -63 6 61 c8 68 -3 92 -41 92 -12 0 -29 -8 -38
-18z"/>
</g>
</svg>
